PathFileType	4	(X/Y/Z)	G:\Shared drives\HPL_Drive\Nord Sprinting Study\Kristen_Nord_test\Trimmed_Nord000002.trc
DataRate	CameraRate	NumFrames	NumMarkers	Units	OrigDataRate	OrigDataStartFrame	OrigNumFrames
200.00	200.00	      4	52	mm	200.00	1357	      2170
Frame#	Time	C7			R_Shoulder			L_Shoulder			Sternum			R_humerus			R_elbow_med			R_elbow_lat			R_forearm			R_wrist_radius			R_wrist_ulna			L_humerus			L_elbow_med			L_elbow_lat			L_forearm			L_wrist_radius			L_wrist_ulna			r.ASIS			r.PSIS			r_IC			L.ASIS			L.PSIS			l_IC			r_thigh1			r_thigh2			r_thigh3			r_thigh4			r_thigh5			r_knee			r_mknee			r_shank_antsup			r_sh2			r_sh3			r_sh4			r_ankle			r_mankle			r_calc			r_5meta			r_toe			L_thigh1			L_thigh2			L_thigh3			L_thigh4			L_knee			L_mknee			L_shank_antsup			L_sh2			L_sh3			L_ankle			L_mankle			L_calc			L_5meta			L_toe			
		X1	Y1	Z1	X2	Y2	Z2	X3	Y3	Z3	X4	Y4	Z4	X5	Y5	Z5	X6	Y6	Z6	X7	Y7	Z7	X8	Y8	Z8	X9	Y9	Z9	X10	Y10	Z10	X11	Y11	Z11	X12	Y12	Z12	X13	Y13	Z13	X14	Y14	Z14	X15	Y15	Z15	X16	Y16	Z16	X17	Y17	Z17	X18	Y18	Z18	X19	Y19	Z19	X20	Y20	Z20	X21	Y21	Z21	X22	Y22	Z22	X23	Y23	Z23	X24	Y24	Z24	X25	Y25	Z25	X26	Y26	Z26	X27	Y27	Z27	X28	Y28	Z28	X29	Y29	Z29	X30	Y30	Z30	X31	Y31	Z31	X32	Y32	Z32	X33	Y33	Z33	X34	Y34	Z34	X35	Y35	Z35	X36	Y36	Z36	X37	Y37	Z37	X38	Y38	Z38	X39	Y39	Z39	X40	Y40	Z40	X41	Y41	Z41	X42	Y42	Z42	X43	Y43	Z43	X44	Y44	Z44	X45	Y45	Z45	X46	Y46	Z46	X47	Y47	Z47	X48	Y48	Z48	X49	Y49	Z49	X50	Y50	Z50	X51	Y51	Z51	X52	Y52	Z52	

1357	6.780	1197.56519	744.85669	1185.06470	1321.24426	782.06476	1167.83789	1066.56628	793.84296	1178.57642	1195.45752	849.05585	1091.71326	1491.93042	724.75323	1144.17798	1617.20984	704.74701	1051.17664	1608.24426	658.99738	1115.33435	1621.65503	754.96887	1202.26526	1610.73779	865.96637	1245.59607	1648.12390	843.68298	1268.15527	866.61322	751.08014	1157.75415	756.85529	758.22937	1067.64258	753.02942	708.59320	1127.93079	791.53998	816.94568	1223.17041	784.30389	901.93378	1272.77112	838.88354	894.19739	1261.42358	1310.63721	630.84259	676.38452	1258.98242	525.32587	835.41656	1344.61768	625.90070	786.73505	1072.98486	620.07941	671.96802	1143.57214	520.89484	826.89087	1046.63208	619.83191	769.89917	1382.62561	490.60858	481.43805	1378.94019	434.16699	380.61111	1392.06665	379.95245	378.49551	1389.25635	396.90729	536.15393	1374.23853	342.32498	431.19263	1378.60828	350.86722	307.61081	1254.44543	336.65256	319.36533	1399.27197	222.08607	312.74246	1385.89014	102.54996	323.99017	1401.18018	226.63359	389.60016	1388.45605	112.25615	405.86041	1374.16211	-66.11858	378.18622	1296.42639	-53.51826	354.35330	1319.17407	-94.99083	438.06406	1385.22937	-139.38815	279.28696	1351.05371	-110.11662	228.24277	1006.97797	482.03558	476.54596	1010.45105	412.64423	353.75845	1008.14026	379.13455	538.51379	1015.41266	315.61710	417.73715	1001.32196	320.89389	326.25668	1126.80884	320.93860	305.77426	984.05334	208.69379	322.52646	999.33099	221.75294	411.77499	1011.76099	101.02869	417.05344	1019.64008	-81.12972	397.60861	1085.98547	-63.09214	337.89664	1076.28284	-81.82143	437.97342	1002.57104	-185.15469	302.75027	1036.99316	-169.87933	242.02177	
1358	6.785	1197.57727	745.34583	1184.84558	1320.97559	782.40082	1167.36462	1066.57190	794.28809	1178.30969	1195.53931	849.51324	1091.42700	1491.99036	725.23486	1143.90442	1617.22388	705.14996	1050.93652	1608.25208	659.44342	1115.12476	1621.65308	755.44867	1201.99780	1610.72864	866.46210	1245.23157	1648.12024	844.21991	1267.81750	866.64258	751.56433	1157.46057	757.34576	758.34155	1067.33057	753.05927	709.02972	1127.66541	791.54578	817.50031	1222.77551	784.01953	902.57263	1272.41418	838.88708	894.73706	1260.97095	1310.63647	631.02234	676.25653	1259.06055	525.66370	835.32343	1344.38782	626.25745	786.47321	1073.00208	620.18628	671.80603	1143.43176	520.94244	826.84332	1046.63721	620.09204	769.79248	1382.63562	490.73877	481.37747	1378.90723	434.27634	380.54178	1392.06165	380.06110	378.47198	1389.31470	397.11816	536.10577	1374.31030	342.43692	431.17966	1378.60132	350.86407	307.58209	1254.46582	336.66025	319.38388	1399.36804	222.13954	312.72455	1385.98767	102.55348	323.97824	1401.25732	226.67200	389.60733	1388.60095	112.31302	405.86298	1374.47839	-66.11280	378.20972	1296.63440	-53.55134	354.40842	1319.40393	-94.98531	438.07748	1385.43860	-139.33293	279.27606	1351.21899	-110.07018	228.21913	1007.01678	482.06219	476.48291	1010.44470	412.66678	353.72812	1008.18152	379.19156	538.50598	1015.47766	315.62851	417.75766	1001.32959	320.88205	326.30261	1126.80212	320.92368	305.74045	984.16284	208.73816	322.69321	999.36487	221.72722	411.80447	1012.31586	100.33710	416.90680	1019.73499	-80.96019	397.61725	1086.08752	-63.08427	337.87390	1076.38586	-81.70636	438.00876	1002.69781	-185.15958	302.81998	1037.10754	-169.90247	242.03789	
1359	6.790	1197.65552	745.84656	1184.59912	1321.38684	782.94379	1167.00623	1066.61987	794.79187	1178.03455	1195.58179	849.96265	1091.15430	1492.03406	725.68640	1143.67834	1617.23206	705.58765	1050.71924	1608.29639	659.88422	1114.91577	1621.63525	755.92432	1201.74731	1610.74805	866.97266	1244.84583	1648.09692	844.73785	1267.50122	866.70331	752.03003	1157.14270	757.40942	758.72858	1067.01367	753.09229	709.44080	1127.41211	791.50305	818.02417	1222.43176	784.00098	903.09308	1271.96057	838.91638	895.21307	1260.51733	1310.65991	631.16498	676.12439	1259.06384	525.94849	835.24036	1344.45251	626.52380	786.29620	1073.07593	620.36243	671.69672	1143.48169	521.21838	826.75385	1046.69983	620.35760	769.65204	1382.61487	490.92068	481.32877	1378.94702	434.30884	380.50235	1392.07007	380.13242	378.42279	1389.38513	397.24207	536.07330	1374.33789	342.51498	431.18866	1378.60168	350.89023	307.61835	1254.47852	336.65707	319.41278	1399.36755	222.15573	312.71097	1386.13196	102.59970	323.96118	1401.35181	226.74695	389.62326	1388.75757	112.34711	405.88547	1374.63892	-66.07302	378.19943	1296.79077	-53.55086	354.44885	1319.65735	-94.96464	438.06686	1385.62012	-139.30272	279.23169	1351.36902	-110.03393	228.23180	1007.07043	482.13028	476.42828	1010.44135	412.68549	353.72504	1008.23035	379.24359	538.50885	1015.48639	315.65634	417.80408	1000.49292	320.77682	326.62418	1126.80481	320.86710	305.77057	984.20697	208.70274	322.74817	999.88702	221.84055	411.88181	1011.91510	101.04518	417.14322	1019.86877	-81.10802	397.65002	1086.18250	-63.05914	337.93790	1076.58997	-81.73389	437.97287	1003.31580	-185.11905	302.91400	1037.21667	-169.89691	242.04565	
1360	6.795	1197.80579	746.42242	1184.27136	1321.45313	783.43353	1166.72266	1066.67224	795.32184	1177.75427	1195.63538	850.41449	1090.81628	1492.05908	726.16058	1143.46313	1616.36340	706.20770	1050.49402	1608.31909	660.29865	1114.75305	1621.62646	756.40558	1201.50964	1610.71851	867.45660	1244.50586	1648.12659	845.24603	1267.21973	866.73712	752.44153	1156.90149	756.35583	758.95752	1067.13782	753.19055	709.81158	1127.13708	791.48798	818.54529	1222.10425	784.00726	903.71375	1271.41882	838.91528	895.67303	1260.09033	1310.70813	631.32599	675.97711	1259.05542	526.24500	835.24426	1344.47656	626.80096	786.18115	1073.11450	620.56189	671.51569	1143.63867	521.53699	826.74982	1046.71155	620.61407	769.03961	1382.66223	491.03766	481.27408	1379.00427	434.27560	380.34415	1392.08398	380.23953	378.39990	1389.41748	397.40088	536.04993	1374.38208	342.61234	431.18771	1378.61072	350.95026	307.60455	1254.48047	336.66779	319.42426	1399.41101	222.18405	312.70044	1386.28015	102.64133	323.98355	1401.42993	226.76431	389.60367	1388.86865	112.32450	405.92923	1374.86157	-66.03745	378.18127	1297.03101	-53.57081	354.38889	1319.84473	-94.94225	438.06934	1385.80481	-139.26102	279.21960	1351.54553	-109.98575	228.23511	1007.06274	482.23157	476.40082	1010.45068	412.69186	353.69983	1008.52826	379.54633	539.24823	1015.55725	315.72305	417.81570	1000.50110	320.78839	326.59918	1126.77478	320.84033	305.81271	984.25476	208.72714	322.69138	999.93475	221.82053	411.90576	1012.02356	101.07105	417.18347	1019.98389	-81.10205	397.68613	1086.30762	-63.01490	337.91589	1076.68665	-81.70554	437.95734	1003.44910	-185.10757	302.94122	1037.30005	-169.88852	242.09172	
